<?xml version="1.0" standalone="no"?>
<!DOCTYPE svg PUBLIC "-//W3C//DTD SVG 20010904//EN"
 "http://www.w3.org/TR/2001/REC-SVG-20010904/DTD/svg10.dtd">
<svg version="1.0" xmlns="http://www.w3.org/2000/svg"
 width="55.000000pt" height="55.000000pt" viewBox="0 0 55.000000 55.000000"
 preserveAspectRatio="xMidYMid meet">

<g transform="translate(0.000000,55.000000) scale(0.100000,-0.100000)"
fill="#000000" stroke="none">
<path d="M90 481 c-13 -25 -13 -221 0 -221 5 0 11 47 12 108 l3 107 159 3
c100 1 163 -1 170 -8 7 -7 -2 -23 -29 -50 -32 -33 -46 -40 -77 -40 -21 0 -38
4 -38 10 0 14 -55 40 -84 40 -39 0 -86 -46 -86 -84 0 -35 26 -70 60 -81 11 -4
20 -15 20 -26 0 -18 6 -20 103 -17 l102 3 3 57 c2 35 9 61 18 69 13 11 15 2
12 -67 l-3 -79 -98 -3 -98 -3 3 -37 3 -37 99 -5 c79 -4 96 -7 85 -17 -8 -7
-46 -14 -84 -16 l-70 -3 82 -2 c72 -2 84 0 93 17 5 11 22 21 37 23 24 3 28 8
31 41 3 35 2 37 -27 37 l-31 0 0 95 c0 93 0 95 30 117 19 14 30 31 30 46 0 22
-3 24 -32 20 -20 -3 -38 0 -46 8 -10 11 -53 14 -177 14 -152 0 -165 -1 -175
-19z m415 -21 c3 -5 2 -10 -4 -10 -5 0 -13 5 -16 10 -3 6 -2 10 4 10 5 0 13
-4 16 -10z m-81 -83 c-78 -73 -92 -61 -18 14 35 36 62 55 67 50 6 -6 -14 -31
-49 -64z m-165 19 c10 -12 7 -15 -21 -18 -32 -3 -33 -5 -36 -50 -3 -51 -14
-58 -44 -31 -26 23 -24 78 4 97 28 20 82 21 97 2z m31 -50 c0 -20 -39 -66 -56
-66 -10 0 -14 12 -14 40 0 39 1 40 35 40 23 0 35 -5 35 -14z m34 -8 c-4 -13
-9 -29 -11 -35 -6 -15 16 -17 51 -3 25 9 26 8 26 -25 l0 -35 -85 0 c-50 0 -85
4 -85 10 0 6 7 10 15 10 25 0 65 46 65 75 0 16 6 25 16 25 11 0 14 -6 8 -22z
m-37 -159 c5 11 7 11 14 0 8 -12 11 -11 19 1 8 12 11 13 19 1 6 -10 10 -10 16
-1 6 9 10 9 16 -1 8 -12 10 -12 18 0 6 10 10 10 16 1 6 -9 10 -9 16 1 8 12 10
12 18 0 6 -10 10 -10 16 -1 6 9 10 9 17 -1 7 -11 11 -11 15 -1 7 17 23 5 23
-19 0 -18 -8 -19 -130 -19 -119 0 -130 1 -130 18 0 25 12 35 23 20 7 -10 10
-10 14 1z"/>
<path d="M155 460 c3 -5 8 -10 11 -10 2 0 4 5 4 10 0 6 -5 10 -11 10 -5 0 -7
-4 -4 -10z"/>
<path d="M20 160 l0 -130 135 0 c76 0 135 4 135 9 0 10 -255 251 -265 251 -3
0 -5 -58 -5 -130z m226 -101 c3 -5 -42 -9 -100 -9 l-106 0 0 101 0 101 100
-92 c55 -51 103 -97 106 -101z"/>
<path d="M70 125 l0 -45 52 0 52 0 -44 45 c-24 25 -48 45 -52 45 -4 0 -8 -20
-8 -45z m40 -10 c10 -12 10 -15 -4 -15 -9 0 -16 7 -16 15 0 8 2 15 4 15 2 0 9
-7 16 -15z"/>
</g>
</svg>
