<?xml version="1.0" encoding="UTF-8"?>
<!DOCTYPE svg PUBLIC "-//W3C//DTD SVG 1.1//EN" "http://www.w3.org/Graphics/SVG/1.1/DTD/svg11.dtd">
<svg xmlns="http://www.w3.org/2000/svg" version="1.1" width="55px" height="55px" style="shape-rendering:geometricPrecision; text-rendering:geometricPrecision; image-rendering:optimizeQuality; fill-rule:evenodd; clip-rule:evenodd" xmlns:xlink="http://www.w3.org/1999/xlink">
<g><path style="opacity:1" fill="#eaeaea" d="M -0.5,-0.5 C 17.8333,-0.5 36.1667,-0.5 54.5,-0.5C 54.5,17.8333 54.5,36.1667 54.5,54.5C 36.1667,54.5 17.8333,54.5 -0.5,54.5C -0.5,36.1667 -0.5,17.8333 -0.5,-0.5 Z"/></g>
<g><path style="opacity:1" fill="#2b2b2b" d="M 10.5,2.5 C 14.5138,2.33449 18.5138,2.50115 22.5,3C 23.8333,4.66667 23.8333,6.33333 22.5,8C 19.6484,8.26944 16.9818,9.10278 14.5,10.5C 13.1585,8.99512 11.4918,8.32846 9.5,8.5C 9.32526,6.3792 9.65859,4.3792 10.5,2.5 Z"/></g>
<g><path style="opacity:1" fill="#ebebeb" d="M 11.5,4.5 C 14.8984,4.17964 18.2317,4.51298 21.5,5.5C 17.6899,8.21481 14.3566,7.88147 11.5,4.5 Z"/></g>
<g><path style="opacity:1" fill="#1a1a1a" d="M 13.5,21.5 C 13.5,23.8333 13.5,26.1667 13.5,28.5C 14.8333,28.5 16.1667,28.5 17.5,28.5C 17.5,26.8333 17.5,25.1667 17.5,23.5C 18.1667,25.1667 18.8333,26.8333 19.5,28.5C 20.8333,28.5 22.1667,28.5 23.5,28.5C 23.5,29.5 23.5,30.5 23.5,31.5C 25.6074,32.4682 27.9407,32.8016 30.5,32.5C 30.5,31.1667 30.5,29.8333 30.5,28.5C 31.8333,28.5 33.1667,28.5 34.5,28.5C 34.5,26.8333 34.5,25.1667 34.5,23.5C 34.5,22.8333 34.8333,22.5 35.5,22.5C 35.5,22.8333 35.5,23.1667 35.5,23.5C 35.5,25.1667 35.5,26.8333 35.5,28.5C 36.8333,28.5 38.1667,28.5 39.5,28.5C 39.5,26.1667 39.5,23.8333 39.5,21.5C 40.9349,20.0152 40.7683,18.6819 39,17.5C 38.1191,11.7141 40.6191,9.21407 46.5,10C 49.4076,12.0696 50.0743,14.5696 48.5,17.5C 48.7496,18.9221 49.583,19.9221 51,20.5C 51.6667,25.8333 51.6667,31.1667 51,36.5C 50.3333,37.1667 49.6667,37.8333 49,38.5C 47.8381,53.1518 47.0048,53.1518 46.5,38.5C 44.1667,38.5 41.8333,38.5 39.5,38.5C 39.5,42.1667 39.5,45.8333 39.5,49.5C 37.1667,49.5 34.8333,49.5 32.5,49.5C 32.5,45.1667 32.5,40.8333 32.5,36.5C 30.5853,36.2155 28.9187,36.5489 27.5,37.5C 27.5,41.1667 27.5,44.8333 27.5,48.5C 28.5,48.5 29.5,48.5 30.5,48.5C 28.0521,49.4731 25.3854,49.8064 22.5,49.5C 23.209,48.596 24.209,48.2627 25.5,48.5C 25.5,44.5 25.5,40.5 25.5,36.5C 23.8333,36.5 22.1667,36.5 20.5,36.5C 20.5,40.8333 20.5,45.1667 20.5,49.5C 18.1667,49.5 15.8333,49.5 13.5,49.5C 13.5,45.8333 13.5,42.1667 13.5,38.5C 11.1667,38.5 8.83333,38.5 6.5,38.5C 5.99519,53.1518 5.16185,53.1518 4,38.5C 3.33333,37.8333 2.66667,37.1667 2,36.5C 1.33333,31.1667 1.33333,25.8333 2,20.5C 3.41704,19.9221 4.25038,18.9221 4.5,17.5C 2.85546,12.2972 4.85546,9.79719 10.5,10C 14.9331,12.3309 15.5998,15.4975 12.5,19.5C 12.8627,20.1835 13.1961,20.8501 13.5,21.5 Z"/></g>
<g><path style="opacity:1" fill="#b4b4b4" d="M 20.5,33.5 C 24.5546,33.1758 28.5546,33.5091 32.5,34.5C 30.5,34.8333 28.5,35.1667 26.5,35.5C 24.0478,35.4609 22.0478,34.7943 20.5,33.5 Z"/></g>
<g><path style="opacity:1" fill="#858585" d="M 30.5,28.5 C 30.5,29.8333 30.5,31.1667 30.5,32.5C 27.9407,32.8016 25.6074,32.4682 23.5,31.5C 25.5,31.5 27.5,31.5 29.5,31.5C 29.2627,30.209 29.596,29.209 30.5,28.5 Z"/></g>
<g><path style="opacity:1" fill="#9a9a9a" d="M 9.5,25.5 C 10.4614,27.2646 10.7947,29.2646 10.5,31.5C 14.1667,31.5 17.8333,31.5 21.5,31.5C 17.7016,32.4834 13.7016,32.8168 9.5,32.5C 9.5,30.1667 9.5,27.8333 9.5,25.5 Z"/></g>
<g><path style="opacity:1" fill="#a5a5a5" d="M 39.5,21.5 C 39.5,23.8333 39.5,26.1667 39.5,28.5C 38.1667,28.5 36.8333,28.5 35.5,28.5C 35.5,26.8333 35.5,25.1667 35.5,23.5C 36.1614,24.7175 36.8281,26.0508 37.5,27.5C 38.1687,25.3691 38.8354,23.3691 39.5,21.5 Z"/></g>
<g><path style="opacity:1" fill="#a9a9a9" d="M 13.5,21.5 C 14.1646,23.3691 14.8313,25.3691 15.5,27.5C 16.1719,26.0508 16.8386,24.7175 17.5,23.5C 17.5,25.1667 17.5,26.8333 17.5,28.5C 16.1667,28.5 14.8333,28.5 13.5,28.5C 13.5,26.1667 13.5,23.8333 13.5,21.5 Z"/></g>
<g><path style="opacity:1" fill="#d4d4d4" d="M 41.5,20.5 C 44.6852,20.0196 47.5185,20.6863 50,22.5C 50.6667,26.8333 50.6667,31.1667 50,35.5C 45.9341,36.4637 41.7675,36.797 37.5,36.5C 37.5,40.5 37.5,44.5 37.5,48.5C 36.5,48.5 35.5,48.5 34.5,48.5C 34.3342,43.8215 34.5008,39.1548 35,34.5C 38.0567,33.5495 41.2234,33.2161 44.5,33.5C 44.6641,30.8127 44.4974,28.146 44,25.5C 43.5034,27.8098 43.3367,30.1432 43.5,32.5C 39.5,32.5 35.5,32.5 31.5,32.5C 31.5,31.5 31.5,30.5 31.5,29.5C 34.5,29.5 37.5,29.5 40.5,29.5C 40.2641,26.3915 40.5975,23.3915 41.5,20.5 Z"/></g>
<g><path style="opacity:1" fill="#dedede" d="M 34.5,23.5 C 34.5,25.1667 34.5,26.8333 34.5,28.5C 33.1667,28.5 31.8333,28.5 30.5,28.5C 29.596,29.209 29.2627,30.209 29.5,31.5C 27.5,31.5 25.5,31.5 23.5,31.5C 23.5,30.5 23.5,29.5 23.5,28.5C 22.1667,28.5 20.8333,28.5 19.5,28.5C 20.0322,19.0462 22.3655,18.3795 26.5,26.5C 27.7661,24.2902 29.2661,22.2902 31,20.5C 32.5991,21.0707 33.7658,22.0707 34.5,23.5 Z"/></g>
<g><path style="opacity:1" fill="#d3d3d3" d="M 21.5,31.5 C 17.8333,31.5 14.1667,31.5 10.5,31.5C 10.7947,29.2646 10.4614,27.2646 9.5,25.5C 8.52693,27.9479 8.1936,30.6146 8.5,33.5C 11.5184,33.3354 14.5184,33.502 17.5,34C 18,34.5 18.5,35 19,35.5C 19.499,39.8206 19.6657,44.1539 19.5,48.5C 18.1667,48.5 16.8333,48.5 15.5,48.5C 15.5,44.5 15.5,40.5 15.5,36.5C 11.2325,36.797 7.06588,36.4637 3,35.5C 2.33333,31.1667 2.33333,26.8333 3,22.5C 10.905,18.1515 14.0717,20.4848 12.5,29.5C 16.0122,28.9455 19.0122,29.6122 21.5,31.5 Z"/></g>
<g><path style="opacity:1" fill="#262626" d="M 35.5,22.5 C 34.8333,22.5 34.5,22.8333 34.5,23.5C 33.7658,22.0707 32.5991,21.0707 31,20.5C 29.2661,22.2902 27.7661,24.2902 26.5,26.5C 22.3655,18.3795 20.0322,19.0462 19.5,28.5C 18.8333,26.8333 18.1667,25.1667 17.5,23.5C 18.2187,21.1119 19.8854,19.6119 22.5,19C 19.0845,13.9691 20.4179,10.8024 26.5,9.5C 31.4069,10.4848 33.0735,13.3182 31.5,18C 33.0182,19.3506 34.3515,20.8506 35.5,22.5 Z"/></g>
<g><path style="opacity:1" fill="#b7b7b7" d="M 25.5,20.5 C 27.337,20.6395 27.6704,21.3061 26.5,22.5C 25.7025,22.0431 25.3691,21.3764 25.5,20.5 Z"/></g>
<g><path style="opacity:1" fill="#dcdcdc" d="M 48.5,17.5 C 42.6976,20.8685 40.1976,19.2018 41,12.5C 46.0191,10.3497 48.5191,12.0164 48.5,17.5 Z"/></g>
<g><path style="opacity:1" fill="#ececec" d="M 24.5,11.5 C 29.4857,11.3049 31.1524,13.4716 29.5,18C 22.5608,19.5741 20.8941,17.4074 24.5,11.5 Z"/></g>
<g><path style="opacity:1" fill="#dcdcdc" d="M 4.5,17.5 C 4.48088,12.0164 6.98088,10.3497 12,12.5C 12.8024,19.2018 10.3024,20.8685 4.5,17.5 Z"/></g>
<g><path style="opacity:1" fill="#efefef" d="M 27.5,37.5 C 28.8333,37.5 30.1667,37.5 31.5,37.5C 31.815,41.3714 31.4816,45.0381 30.5,48.5C 29.5,48.5 28.5,48.5 27.5,48.5C 27.5,44.8333 27.5,41.1667 27.5,37.5 Z"/></g>
<g><path style="opacity:1" fill="#bbbbbb" d="M 27.5,37.5 C 28.9187,36.5489 30.5853,36.2155 32.5,36.5C 32.5,40.8333 32.5,45.1667 32.5,49.5C 29.0641,50.7815 25.7307,50.7815 22.5,49.5C 25.3854,49.8064 28.0521,49.4731 30.5,48.5C 31.4816,45.0381 31.815,41.3714 31.5,37.5C 30.1667,37.5 28.8333,37.5 27.5,37.5 Z"/></g>
</svg>
