<?xml version="1.0" encoding="UTF-8"?>
<!DOCTYPE svg PUBLIC "-//W3C//DTD SVG 1.1//EN" "http://www.w3.org/Graphics/SVG/1.1/DTD/svg11.dtd">
<svg xmlns="http://www.w3.org/2000/svg" version="1.1" width="55px" height="55px" style="shape-rendering:geometricPrecision; text-rendering:geometricPrecision; image-rendering:optimizeQuality; fill-rule:evenodd; clip-rule:evenodd" xmlns:xlink="http://www.w3.org/1999/xlink">
<g><path style="opacity:1" fill="#eeeeee" d="M -0.5,-0.5 C 17.8333,-0.5 36.1667,-0.5 54.5,-0.5C 54.5,17.8333 54.5,36.1667 54.5,54.5C 36.1667,54.5 17.8333,54.5 -0.5,54.5C -0.5,36.1667 -0.5,17.8333 -0.5,-0.5 Z"/></g>
<g><path style="opacity:1" fill="#444444" d="M 17.5,5.5 C 24.3134,4.50881 31.3134,4.17547 38.5,4.5C 38.5,9.5 38.5,14.5 38.5,19.5C 37.8861,14.5874 37.2195,10.254 36.5,6.5C 30.5,6.5 24.5,6.5 18.5,6.5C 18.5,5.83333 18.1667,5.5 17.5,5.5 Z"/></g>
<g><path style="opacity:1" fill="#1c1c1c" d="M 17.5,5.5 C 18.1667,5.5 18.5,5.83333 18.5,6.5C 18.5,8.83333 18.5,11.1667 18.5,13.5C 15.8333,13.5 13.1667,13.5 10.5,13.5C 10.5,17.1667 10.5,20.8333 10.5,24.5C 12.8333,24.5 15.1667,24.5 17.5,24.5C 17.5,21.5 17.5,18.5 17.5,15.5C 18.8333,15.5 20.1667,15.5 21.5,15.5C 21.7274,20.5436 21.394,25.5436 20.5,30.5C 21.9476,32.8345 23.2809,32.5011 24.5,29.5C 23.5827,26.2423 23.2493,22.909 23.5,19.5C 25.1667,19.5 26.8333,19.5 28.5,19.5C 28.1486,22.0412 28.4819,23.7079 29.5,24.5C 30.4794,21.3752 30.8128,18.0419 30.5,14.5C 31.8333,14.5 33.1667,14.5 34.5,14.5C 34.5,19.1667 34.5,23.8333 34.5,28.5C 33.0401,30.4628 31.3734,32.2962 29.5,34C 31.8098,34.4966 34.1432,34.6633 36.5,34.5C 35.8333,35.1667 35.1667,35.8333 34.5,36.5C 23.5027,35.5055 19.1694,40.5055 21.5,51.5C 15.1667,51.5 8.83333,51.5 2.5,51.5C 2.3347,47.8183 2.50137,44.1516 3,40.5C 4.2506,37.6193 6.41727,35.786 9.5,35C 8.05644,33.874 7.38977,32.374 7.5,30.5C 8.19873,24.5198 8.69873,18.5198 9,12.5C 11.5881,9.80012 14.4214,7.46679 17.5,5.5 Z"/></g>
<g><path style="opacity:1" fill="#191919" d="M 38.5,19.5 C 38.5,20.1667 38.5,20.8333 38.5,21.5C 38.5,26.5 38.5,31.5 38.5,36.5C 37.1667,36.5 35.8333,36.5 34.5,36.5C 35.1667,35.8333 35.8333,35.1667 36.5,34.5C 36.5,25.1667 36.5,15.8333 36.5,6.5C 37.2195,10.254 37.8861,14.5874 38.5,19.5 Z"/></g>
<g><path style="opacity:1" fill="#000000" d="M 41.5,11.5 C 40.6618,11.1583 40.3284,10.4916 40.5,9.5C 41.5,9.5 42.5,9.5 43.5,9.5C 43.5,8.5 43.5,7.5 43.5,6.5C 46.5,6.5 49.5,6.5 52.5,6.5C 52.5,8.83333 52.5,11.1667 52.5,13.5C 49.5,13.5 46.5,13.5 43.5,13.5C 43.719,12.325 43.3857,11.325 42.5,10.5C 41.8933,10.6236 41.56,10.9569 41.5,11.5 Z"/></g>
<g><path style="opacity:1" fill="#bdbdbd" d="M 16.5,7.5 C 17.4511,8.91866 17.7845,10.5853 17.5,12.5C 15.8008,12.6602 14.1341,12.4935 12.5,12C 14.0414,10.6288 15.3747,9.12879 16.5,7.5 Z"/></g>
<g><path style="opacity:1" fill="#b2b2b2" d="M 44.5,7.5 C 46.8333,7.5 49.1667,7.5 51.5,7.5C 51.5,9.16667 51.5,10.8333 51.5,12.5C 49.1667,12.5 46.8333,12.5 44.5,12.5C 44.5,10.8333 44.5,9.16667 44.5,7.5 Z"/></g>
<g><path style="opacity:1" fill="#dedede" d="M 18.5,6.5 C 24.5,6.5 30.5,6.5 36.5,6.5C 36.5,15.8333 36.5,25.1667 36.5,34.5C 34.1432,34.6633 31.8098,34.4966 29.5,34C 31.3734,32.2962 33.0401,30.4628 34.5,28.5C 35.4872,23.6946 35.8205,18.6946 35.5,13.5C 33.5,13.5 31.5,13.5 29.5,13.5C 29.5,17.1667 29.5,20.8333 29.5,24.5C 28.4819,23.7079 28.1486,22.0412 28.5,19.5C 26.8333,19.5 25.1667,19.5 23.5,19.5C 23.2493,22.909 23.5827,26.2423 24.5,29.5C 23.2809,32.5011 21.9476,32.8345 20.5,30.5C 21.394,25.5436 21.7274,20.5436 21.5,15.5C 20.1667,15.5 18.8333,15.5 17.5,15.5C 17.5,18.5 17.5,21.5 17.5,24.5C 15.1667,24.5 12.8333,24.5 10.5,24.5C 10.5,20.8333 10.5,17.1667 10.5,13.5C 13.1667,13.5 15.8333,13.5 18.5,13.5C 18.5,11.1667 18.5,8.83333 18.5,6.5 Z"/></g>
<g><path style="opacity:1" fill="#464646" d="M 20.5,10.5 C 25.2137,10.1734 29.8804,10.5067 34.5,11.5C 32.1667,11.8333 29.8333,12.1667 27.5,12.5C 24.7305,12.4714 22.3972,11.8048 20.5,10.5 Z"/></g>
<g><path style="opacity:1" fill="#545454" d="M 20.5,7.5 C 23.2469,7.18665 25.9135,7.51998 28.5,8.5C 27.1667,8.83333 25.8333,9.16667 24.5,9.5C 22.6672,9.41456 21.3339,8.7479 20.5,7.5 Z"/></g>
<g><path style="opacity:1" fill="#8f8f8f" d="M 34.5,28.5 C 34.5,23.8333 34.5,19.1667 34.5,14.5C 33.1667,14.5 31.8333,14.5 30.5,14.5C 30.8128,18.0419 30.4794,21.3752 29.5,24.5C 29.5,20.8333 29.5,17.1667 29.5,13.5C 31.5,13.5 33.5,13.5 35.5,13.5C 35.8205,18.6946 35.4872,23.6946 34.5,28.5 Z"/></g>
<g><path style="opacity:1" fill="#c8c8c8" d="M 31.5,15.5 C 32.7647,16.5145 33.4313,18.0145 33.5,20C 33.1667,21.5 32.8333,23 32.5,24.5C 31.5159,21.5719 31.1826,18.5719 31.5,15.5 Z"/></g>
<g><path style="opacity:1" fill="#a3a3a3" d="M 18.5,16.5 C 19.7868,17.8714 20.4535,19.7047 20.5,22C 20.1667,23.8333 19.8333,25.6667 19.5,27.5C 18.5108,23.8927 18.1774,20.226 18.5,16.5 Z"/></g>
<g><path style="opacity:1" fill="#2f2f2f" d="M 40.5,9.5 C 40.3284,10.4916 40.6618,11.1583 41.5,11.5C 41.3359,14.1873 41.5026,16.854 42,19.5C 42.4828,18.552 42.6495,17.552 42.5,16.5C 45.8333,16.5 49.1667,16.5 52.5,16.5C 52.5,19.1667 52.5,21.8333 52.5,24.5C 49.5,24.5 46.5,24.5 43.5,24.5C 43.719,23.325 43.3857,22.325 42.5,21.5C 41.5159,24.4281 41.1826,27.4281 41.5,30.5C 40.9326,31.4202 41.5992,31.7535 43.5,31.5C 43.5,32.5 43.5,33.5 43.5,34.5C 42.5326,33.1938 41.1993,32.5271 39.5,32.5C 39.815,28.6286 39.4816,24.9619 38.5,21.5C 38.5,20.8333 38.5,20.1667 38.5,19.5C 39.1667,16.1667 39.8333,12.8333 40.5,9.5 Z"/></g>
<g><path style="opacity:1" fill="#d9d9d9" d="M 44.5,18.5 C 46.8333,18.5 49.1667,18.5 51.5,18.5C 51.5,19.8333 51.5,21.1667 51.5,22.5C 49.1667,22.5 46.8333,22.5 44.5,22.5C 44.5,21.1667 44.5,19.8333 44.5,18.5 Z"/></g>
<g><path style="opacity:1" fill="#313131" d="M 46.5,19.5 C 47.675,19.281 48.675,19.6143 49.5,20.5C 47.9483,21.7979 46.9483,21.4646 46.5,19.5 Z"/></g>
<g><path style="opacity:1" fill="#e3e3e3" d="M 12.5,25.5 C 18.2925,26.4215 19.6258,29.2548 16.5,34C 11.0141,35.8253 8.51407,33.9919 9,28.5C 10.1451,27.3636 11.3117,26.3636 12.5,25.5 Z"/></g>
<g><path style="opacity:1" fill="#e2e2e2" d="M 8.5,49.5 C 8.81741,46.4281 8.48408,43.4281 7.5,40.5C 6.89333,40.6236 6.55999,40.9569 6.5,41.5C 6.5,44.1667 6.5,46.8333 6.5,49.5C 4.63105,47.3647 3.96438,44.6981 4.5,41.5C 5.98317,37.0592 8.3165,36.2258 11.5,39C 12.8333,39.6667 14.1667,39.6667 15.5,39C 21.0586,35.4506 26.0586,31.1172 30.5,26C 32.6667,25.5 33.5,26.3333 33,28.5C 28.3663,32.1321 24.033,36.1321 20,40.5C 19.5017,43.8168 19.335,47.1501 19.5,50.5C 15.6286,50.815 11.9619,50.4816 8.5,49.5 Z"/></g>
<g><path style="opacity:1" fill="#000000" d="M 43.5,34.5 C 43.5,33.5 43.5,32.5 43.5,31.5C 41.5992,31.7535 40.9326,31.4202 41.5,30.5C 43.0481,30.1788 43.7148,29.1788 43.5,27.5C 46.5,27.5 49.5,27.5 52.5,27.5C 52.5,29.8333 52.5,32.1667 52.5,34.5C 49.5,34.5 46.5,34.5 43.5,34.5 Z"/></g>
<g><path style="opacity:1" fill="#c0c0c0" d="M 44.5,28.5 C 46.8333,28.5 49.1667,28.5 51.5,28.5C 51.5,30.1667 51.5,31.8333 51.5,33.5C 49.1667,33.5 46.8333,33.5 44.5,33.5C 44.5,31.8333 44.5,30.1667 44.5,28.5 Z"/></g>
<g><path style="opacity:1" fill="#636363" d="M 46.5,30.5 C 47.675,30.281 48.675,30.6143 49.5,31.5C 47.9483,32.7979 46.9483,32.4646 46.5,30.5 Z"/></g>
<g><path style="opacity:1" fill="#808080" d="M 6.5,41.5 C 6.55999,40.9569 6.89333,40.6236 7.5,40.5C 8.48408,43.4281 8.81741,46.4281 8.5,49.5C 7.83333,46.8333 7.16667,44.1667 6.5,41.5 Z"/></g>
<g><path style="opacity:1" fill="#6f6f6f" d="M 4.5,41.5 C 3.96438,44.6981 4.63105,47.3647 6.5,49.5C 5.79105,50.404 4.79105,50.7373 3.5,50.5C 3.19,47.2869 3.52333,44.2869 4.5,41.5 Z"/></g>
</svg>
